<?xml version="1.0" encoding="UTF-8" standalone="no"?>
<!-- Created with Inkscape (http://www.inkscape.org/) -->

<svg
   xmlns:dc="http://purl.org/dc/elements/1.1/"
   xmlns:cc="http://creativecommons.org/ns#"
   xmlns:rdf="http://www.w3.org/1999/02/22-rdf-syntax-ns#"
   xmlns:svg="http://www.w3.org/2000/svg"
   xmlns="http://www.w3.org/2000/svg"
   xmlns:sodipodi="http://sodipodi.sourceforge.net/DTD/sodipodi-0.dtd"
   xmlns:inkscape="http://www.inkscape.org/namespaces/inkscape"
   width="180"
   height="380"
   viewBox="0 0 47.625002 100.54167"
   version="1.1"
   id="svg8"
   inkscape:version="0.92.2 (5c3e80d, 2017-08-06)"
   sodipodi:docname="BgAlacsony.svg">
  <defs
     id="defs2">
    <inkscape:path-effect
       effect="bend_path"
       id="path-effect866"
       is_visible="true"
       bendpath="m 6.8741245,16.664062 c 30.4223115,17.464421 56.9060365,19.609282 77.7968755,0"
       prop_scale="1"
       scale_y_rel="false"
       vertical="false"
       bendpath-nodetypes="cc" />
  </defs>
  <sodipodi:namedview
     id="base"
     pagecolor="#ffffff"
     bordercolor="#666666"
     borderopacity="1.0"
     inkscape:pageopacity="0.0"
     inkscape:pageshadow="2"
     inkscape:zoom="1.2389673"
     inkscape:cx="151.04343"
     inkscape:cy="194.71506"
     inkscape:document-units="px"
     inkscape:current-layer="layer1"
     showgrid="true"
     units="px"
     inkscape:snap-bbox="true"
     inkscape:snap-page="true"
     inkscape:bbox-nodes="true"
     inkscape:snap-bbox-edge-midpoints="true"
     inkscape:window-width="1366"
     inkscape:window-height="706"
     inkscape:window-x="-8"
     inkscape:window-y="-8"
     inkscape:window-maximized="1"
     showguides="true"
     inkscape:guide-bbox="true"
     objecttolerance="5"
     gridtolerance="5"
     guidetolerance="5">
    <inkscape:grid
       type="xygrid"
       id="grid868" />
  </sodipodi:namedview>
  <metadata
     id="metadata5">
    <rdf:RDF>
      <cc:Work
         rdf:about="">
        <dc:format>image/svg+xml</dc:format>
        <dc:type
           rdf:resource="http://purl.org/dc/dcmitype/StillImage" />
        <dc:title></dc:title>
      </cc:Work>
    </rdf:RDF>
  </metadata>
  <g
     inkscape:label="Layer 1"
     inkscape:groupmode="layer"
     id="layer1"
     transform="translate(0,-196.45832)">
    <g
       id="g1072">
      <path
         inkscape:connector-curvature="0"
         id="rect817"
         d="M 0,196.45831 H 47.625 V 296.99999 H 0 Z"
         style="opacity:1;vector-effect:none;fill:#ffb677;fill-opacity:1;fill-rule:evenodd;stroke:none;stroke-width:0.68740773;stroke-linecap:butt;stroke-linejoin:round;stroke-miterlimit:4;stroke-dasharray:none;stroke-dashoffset:0;stroke-opacity:1;paint-order:normal" />
      <g
         id="flowRoot870"
         style="font-style:normal;font-weight:normal;font-size:40px;line-height:1.25;font-family:sans-serif;letter-spacing:0px;word-spacing:0px;fill:#000000;fill-opacity:1;stroke:none"
         transform="matrix(0.26458334,0,0,0.26458334,2.1166668,194.87081)"
         aria-label="X      Y">
        <path
           inkscape:connector-curvature="0"
           id="path905"
           d="m 123.75,196.23047 h 4.23828 l 8.08594,11.99219 8.02734,-11.99219 h 4.23828 l -10.3125,15.27344 v 13.88671 h -3.96484 v -13.88671 z" />
      </g>
      <g
         id="flowRoot883"
         style="font-style:normal;font-variant:normal;font-weight:normal;font-stretch:normal;font-size:18.66666603px;line-height:1.25;font-family:sans-serif;-inkscape-font-specification:sans-serif;letter-spacing:0px;word-spacing:0px;fill:#000000;fill-opacity:1;stroke:none"
         transform="matrix(0.26458334,0,0,0.26458334,0.52916671,208.10006)"
         aria-label="Lock">
        <path
           inkscape:connector-curvature="0"
           id="path891"
           d="m 11.832031,312.90755 h 1.841146 v 12.0586 h 6.626302 v 1.54947 h -8.467448 z" />
        <path
           inkscape:connector-curvature="0"
           id="path893"
           d="m 25.777344,317.48307 q -1.348959,0 -2.132813,1.05729 -0.783854,1.04818 -0.783854,2.88021 0,1.83203 0.77474,2.88933 0.783854,1.04817 2.141927,1.04817 1.339843,0 2.123697,-1.05729 0.783855,-1.05729 0.783855,-2.88021 0,-1.8138 -0.783855,-2.87109 -0.783854,-1.06641 -2.123697,-1.06641 z m 0,-1.42187 q 2.187499,0 3.436197,1.42187 1.248698,1.42188 1.248698,3.9375 0,2.50651 -1.248698,3.9375 -1.248698,1.42188 -3.436197,1.42188 -2.196615,0 -3.445313,-1.42188 -1.239583,-1.43099 -1.239583,-3.9375 0,-2.51562 1.239583,-3.9375 1.248698,-1.42187 3.445313,-1.42187 z" />
        <path
           inkscape:connector-curvature="0"
           id="path895"
           d="m 40.579426,316.69922 v 1.56771 q -0.710938,-0.39193 -1.43099,-0.58334 -0.710938,-0.20052 -1.440104,-0.20052 -1.631511,0 -2.533854,1.03907 -0.902344,1.02994 -0.902344,2.89843 0,1.86849 0.902344,2.90755 0.902343,1.02995 2.533854,1.02995 0.729166,0 1.440104,-0.1914 0.720052,-0.20052 1.43099,-0.59245 v 1.54948 q -0.701823,0.32812 -1.458334,0.49218 -0.747396,0.16407 -1.595052,0.16407 -2.305989,0 -3.664062,-1.44922 -1.358073,-1.44922 -1.358073,-3.91016 0,-2.49739 1.367187,-3.92838 1.376302,-1.43099 3.764323,-1.43099 0.77474,0 1.513021,0.16406 0.738281,0.15495 1.43099,0.47396 z" />
        <path
           inkscape:connector-curvature="0"
           id="path897"
           d="m 43.45052,312.33333 h 1.686197 v 8.37631 l 5.003906,-4.40235 h 2.141927 l -5.414062,4.77604 5.641927,5.43229 h -2.1875 l -5.186198,-4.98567 v 4.98567 H 43.45052 Z" />
      </g>
      <g
         aria-label="X      Y"
         transform="matrix(0.26458334,0,0,0.26458334,11.079416,195.20671)"
         style="font-style:normal;font-weight:normal;font-size:40px;line-height:1.25;font-family:sans-serif;letter-spacing:0px;word-spacing:0px;fill:#000000;fill-opacity:1;stroke:none"
         id="g911">
        <path
           d="m 22.519531,196.23047 h 4.238281 l 7.246094,10.83984 7.285156,-10.83984 h 4.238282 l -9.375,14.0039 10,15.15625 h -4.238282 l -8.203125,-12.40234 -8.261718,12.40234 h -4.257813 l 10.410156,-15.5664 z"
           id="path909"
           inkscape:connector-curvature="0" />
      </g>
    </g>
    <path
       sodipodi:type="star"
       style="display:inline;opacity:1;fill:#80d3df;fill-opacity:1;stroke:#000000;stroke-width:1.32291675;stroke-linecap:round;stroke-linejoin:round;stroke-miterlimit:4;stroke-dasharray:none;stroke-dashoffset:0;stroke-opacity:1;paint-order:normal"
       id="path900"
       sodipodi:sides="5"
       sodipodi:cx="-31.750002"
       sodipodi:cy="21.166668"
       sodipodi:r1="10.470859"
       sodipodi:r2="9.4237728"
       sodipodi:arg1="-1.0471976"
       sodipodi:arg2="-0.41887902"
       inkscape:flatsided="false"
       inkscape:rounded="0.2"
       inkscape:randomized="1.249e-015"
       d="m -26.514573,12.098638 c 1.078706,0.622791 2.866992,4.09714 3.373616,5.235036 0.506624,1.137896 1.891971,4.791644 1.633,6.010007 -0.258971,1.218364 -3.010662,3.992758 -3.93631,4.826215 -0.925648,0.833457 -3.972473,3.280071 -5.211232,3.41027 -1.238759,0.130199 -4.727683,-1.62948 -5.806389,-2.252271 -1.078706,-0.622791 -4.347095,-2.764449 -4.853719,-3.902345 -0.506624,-1.137896 0.08879,-4.999831 0.347764,-6.218195 0.258971,-1.218363 1.285821,-4.988594 2.211469,-5.822051 0.925648,-0.833457 4.782561,-1.460586 6.02132,-1.590784 1.238758,-0.130199 5.141775,-0.318673 6.220481,0.304118 z"
       transform="matrix(0.69861763,-0.36393102,0.36393102,0.69861763,43.224646,249.56115)"
       inkscape:transform-center-x="-0.085150276"
       inkscape:transform-center-y="-0.40621146"
       inkscape:label="knobBG" />
    <g
       id="g1060"
       inkscape:label="Values">
      <g
         id="flowRoot939"
         style="font-style:normal;font-weight:normal;font-size:17.33333397px;line-height:1.25;font-family:sans-serif;letter-spacing:0px;word-spacing:0px;fill:#000000;fill-opacity:1;stroke:none"
         transform="matrix(0.26061904,-0.04562962,0.04562962,0.26061904,68.101976,170.89904)"
         aria-label="+-1">
        <path
           inkscape:connector-curvature="0"
           id="path1023"
           d="m -172.02734,354.46875 v 4.71419 h 4.71419 v 1.43881 h -4.71419 v 4.71419 h -1.42188 v -4.71419 h -4.71419 v -1.43881 h 4.71419 v -4.71419 z" />
        <path
           inkscape:connector-curvature="0"
           id="path1025"
           d="m -164.63021,359.89388 h 4.56185 v 1.38802 h -4.56185 z" />
        <path
           inkscape:connector-curvature="0"
           id="path1027"
           d="m -157.0638,363.89714 h 2.79297 v -9.63998 l -3.03841,0.60938 v -1.5573 l 3.02148,-0.60937 h 1.70964 v 11.19727 h 2.79296 v 1.4388 h -7.27864 z" />
      </g>
      <g
         id="flowRoot965"
         style="font-style:normal;font-weight:normal;font-size:17.33333397px;line-height:1.25;font-family:sans-serif;letter-spacing:0px;word-spacing:0px;fill:#000000;fill-opacity:1;stroke:none"
         transform="matrix(0.21584526,-0.15302015,0.15302015,0.21584526,-2.7710563,184.57691)"
         aria-label="+-10">
        <path
           inkscape:connector-curvature="0"
           id="path1030"
           d="m -172.02734,354.46875 v 4.71419 h 4.71419 v 1.43881 h -4.71419 v 4.71419 h -1.42188 v -4.71419 h -4.71419 v -1.43881 h 4.71419 v -4.71419 z" />
        <path
           inkscape:connector-curvature="0"
           id="path1032"
           d="m -164.63021,359.89388 h 4.56185 v 1.38802 h -4.56185 z" />
        <path
           inkscape:connector-curvature="0"
           id="path1034"
           d="m -157.0638,363.89714 h 2.79297 v -9.63998 l -3.03841,0.60938 v -1.5573 l 3.02148,-0.60937 h 1.70964 v 11.19727 h 2.79296 v 1.4388 h -7.27864 z" />
        <path
           inkscape:connector-curvature="0"
           id="path1036"
           d="m -142.66732,353.82552 q -1.32031,0 -1.98893,1.30339 -0.66015,1.29492 -0.66015,3.90169 0,2.59831 0.66015,3.90169 0.66862,1.29492 1.98893,1.29492 1.32878,0 1.98894,-1.29492 0.66862,-1.30338 0.66862,-3.90169 0,-2.60677 -0.66862,-3.90169 -0.66016,-1.30339 -1.98894,-1.30339 z m 0,-1.35417 q 2.12435,0 3.24154,1.68425 1.12565,1.67578 1.12565,4.875 0,3.19075 -1.12565,4.875 -1.11719,1.67578 -3.24154,1.67578 -2.12435,0 -3.25,-1.67578 -1.11718,-1.68425 -1.11718,-4.875 0,-3.19922 1.11718,-4.875 1.12565,-1.68425 3.25,-1.68425 z" />
      </g>
      <g
         id="flowRoot973"
         style="font-style:normal;font-weight:normal;font-size:17.33333397px;line-height:1.25;font-family:sans-serif;letter-spacing:0px;word-spacing:0px;fill:#000000;fill-opacity:1;stroke:none"
         transform="matrix(0.20574244,0.16635622,-0.16635622,0.20574244,130.49792,240.4251)"
         aria-label="+-2">
        <path
           inkscape:connector-curvature="0"
           id="path1002"
           d="m -172.02734,354.46875 v 4.71419 h 4.71419 v 1.43881 h -4.71419 v 4.71419 h -1.42188 v -4.71419 h -4.71419 v -1.43881 h 4.71419 v -4.71419 z" />
        <path
           inkscape:connector-curvature="0"
           id="path1004"
           d="m -164.63021,359.89388 h 4.56185 v 1.38802 h -4.56185 z" />
        <path
           inkscape:connector-curvature="0"
           id="path1006"
           d="m -155.88737,363.89714 h 5.9668 v 1.4388 h -8.02344 v -1.4388 q 0.97331,-1.00717 2.64909,-2.69987 1.68424,-1.70118 2.11588,-2.19206 0.82097,-0.92253 1.14258,-1.55729 0.33008,-0.64323 0.33008,-1.26107 0,-1.00716 -0.71094,-1.64193 -0.70247,-0.63476 -1.83659,-0.63476 -0.80403,0 -1.70117,0.27929 -0.88867,0.2793 -1.90429,0.84636 v -1.72657 q 1.03255,-0.41471 1.92968,-0.6263 0.89714,-0.21159 1.64193,-0.21159 1.96354,0 3.13151,0.98178 1.16797,0.98177 1.16797,2.62369 0,0.77865 -0.29622,1.48112 -0.28776,0.69401 -1.05795,1.64193 -0.21159,0.24544 -1.3457,1.42188 -1.13411,1.16796 -3.19922,3.27539 z" />
      </g>
      <g
         id="flowRoot981"
         style="font-style:normal;font-weight:normal;font-size:17.33333397px;line-height:1.25;font-family:sans-serif;letter-spacing:0px;word-spacing:0px;fill:#000000;fill-opacity:1;stroke:none"
         transform="matrix(0.25585514,0.06739802,-0.06739802,0.25585514,81.432801,190.23152)"
         aria-label="+-5">
        <path
           inkscape:connector-curvature="0"
           id="path1009"
           d="m -172.02734,354.46875 v 4.71419 h 4.71419 v 1.43881 h -4.71419 v 4.71419 h -1.42188 v -4.71419 h -4.71419 v -1.43881 h 4.71419 v -4.71419 z" />
        <path
           inkscape:connector-curvature="0"
           id="path1011"
           d="m -164.63021,359.89388 h 4.56185 v 1.38802 h -4.56185 z" />
        <path
           inkscape:connector-curvature="0"
           id="path1013"
           d="m -157.3431,352.69987 h 6.71159 v 1.4388 h -5.14583 v 3.09766 q 0.37239,-0.12695 0.74479,-0.1862 0.37239,-0.0677 0.74479,-0.0677 2.11589,0 3.35156,1.15951 1.23568,1.1595 1.23568,3.13997 0,2.03972 -1.26953,3.17383 -1.26953,1.12565 -3.58008,1.12565 -0.79557,0 -1.625,-0.13542 -0.82096,-0.13541 -1.70117,-0.40625 v -1.71809 q 0.76172,0.41471 1.57422,0.61783 0.8125,0.20313 1.7181,0.20313 1.46419,0 2.31901,-0.77018 0.85481,-0.77019 0.85481,-2.0905 0,-1.32031 -0.85481,-2.09049 -0.85482,-0.77019 -2.31901,-0.77019 -0.68555,0 -1.3711,0.15235 -0.67708,0.15234 -1.38802,0.47396 z" />
      </g>
      <g
         inkscape:label="flowRoot989"
         id="flowRoot989"
         style="font-style:normal;font-weight:normal;font-size:17.33333397px;line-height:1.25;font-family:sans-serif;letter-spacing:0px;word-spacing:0px;fill:#000000;fill-opacity:1;stroke:none"
         transform="matrix(0.26458334,0,0,0.26458334,71.057336,168.6701)"
         aria-label="+10">
        <path
           inkscape:connector-curvature="0"
           id="path1016"
           d="m -172.02734,354.46875 v 4.71419 h 4.71419 v 1.43881 h -4.71419 v 4.71419 h -1.42188 v -4.71419 h -4.71419 v -1.43881 h 4.71419 v -4.71419 z" />
        <path
           inkscape:connector-curvature="0"
           id="path1018"
           d="m -163.32682,363.89714 h 2.79297 v -9.63998 l -3.03841,0.60938 v -1.5573 l 3.02148,-0.60937 h 1.70964 v 11.19727 h 2.79296 v 1.4388 h -7.27864 z" />
        <path
           inkscape:connector-curvature="0"
           id="path1020"
           d="m -148.93034,353.82552 q -1.32031,0 -1.98893,1.30339 -0.66015,1.29492 -0.66015,3.90169 0,2.59831 0.66015,3.90169 0.66862,1.29492 1.98893,1.29492 1.32878,0 1.98894,-1.29492 0.66862,-1.30338 0.66862,-3.90169 0,-2.60677 -0.66862,-3.90169 -0.66016,-1.30339 -1.98894,-1.30339 z m 0,-1.35417 q 2.12435,0 3.24154,1.68425 1.12565,1.67578 1.12565,4.875 0,3.19075 -1.12565,4.875 -1.11719,1.67578 -3.24154,1.67578 -2.12434,0 -3.25,-1.67578 -1.11718,-1.68425 -1.11718,-4.875 0,-3.19922 1.11718,-4.875 1.12566,-1.68425 3.25,-1.68425 z" />
      </g>
    </g>
    <path
       style="opacity:1;fill:#80d3df;fill-opacity:1;stroke:#000000;stroke-width:1.32971859;stroke-linecap:round;stroke-linejoin:round;stroke-miterlimit:4;stroke-dasharray:none;stroke-dashoffset:0;stroke-opacity:1;paint-order:normal"
       d="M 4.3432014,202.30656 H 43.498347 c 0.512026,0 0.924235,0.41221 0.924235,0.92424 v 39.15515 c 0,0.51202 -0.412209,0.92423 -0.924235,0.92423 H 4.3432014 c -0.5120265,0 -0.9242356,-0.41221 -0.9242356,-0.92423 V 203.2308 c 0,-0.51203 0.4122091,-0.92424 0.9242356,-0.92424 z"
       id="rect866"
       inkscape:connector-curvature="0"
       inkscape:label="Screen" />
  </g>
</svg>
